<mxfile host="app.diagrams.net" agent="Mozilla/5.0 (Windows NT 10.0; Win64; x64) AppleWebKit/537.36 (KHTML, like Gecko) Chrome/130.0.0.0 Safari/537.36 Edg/130.0.0.0" version="24.8.0">
  <diagram name="Page-1" id="WURP3wtdlC6Z2DZvnkS1">
    <mxGraphModel dx="1134" dy="830" grid="1" gridSize="10" guides="1" tooltips="1" connect="1" arrows="1" fold="1" page="1" pageScale="1" pageWidth="827" pageHeight="1169" math="0" shadow="0">
      <root>
        <mxCell id="0" />
        <mxCell id="1" parent="0" />
        <mxCell id="Vfg6PGqvxrUxQ2yf7E1E-4" value="Gestionnaire réservation école" style="shape=rect;html=1;verticalAlign=top;fontStyle=1;whiteSpace=wrap;align=center;" vertex="1" parent="1">
          <mxGeometry x="470" y="110" width="550" height="520" as="geometry" />
        </mxCell>
        <mxCell id="Vfg6PGqvxrUxQ2yf7E1E-13" style="rounded=0;orthogonalLoop=1;jettySize=auto;html=1;endArrow=none;endFill=0;" edge="1" parent="1" source="Vfg6PGqvxrUxQ2yf7E1E-1" target="Vfg6PGqvxrUxQ2yf7E1E-9">
          <mxGeometry relative="1" as="geometry" />
        </mxCell>
        <mxCell id="Vfg6PGqvxrUxQ2yf7E1E-1" value="Utilisateur de la salle" style="shape=umlActor;verticalLabelPosition=bottom;verticalAlign=top;html=1;outlineConnect=0;" vertex="1" parent="1">
          <mxGeometry x="350" y="230" width="30" height="60" as="geometry" />
        </mxCell>
        <mxCell id="Vfg6PGqvxrUxQ2yf7E1E-16" style="rounded=0;orthogonalLoop=1;jettySize=auto;html=1;endArrow=none;endFill=0;" edge="1" parent="1" source="Vfg6PGqvxrUxQ2yf7E1E-2" target="Vfg6PGqvxrUxQ2yf7E1E-8">
          <mxGeometry relative="1" as="geometry" />
        </mxCell>
        <mxCell id="Vfg6PGqvxrUxQ2yf7E1E-2" value="Enseignant référent" style="shape=umlActor;verticalLabelPosition=bottom;verticalAlign=top;html=1;outlineConnect=0;" vertex="1" parent="1">
          <mxGeometry x="350" y="520" width="30" height="60" as="geometry" />
        </mxCell>
        <mxCell id="Vfg6PGqvxrUxQ2yf7E1E-14" style="rounded=0;orthogonalLoop=1;jettySize=auto;html=1;endArrow=none;endFill=0;" edge="1" parent="1" source="Vfg6PGqvxrUxQ2yf7E1E-3" target="Vfg6PGqvxrUxQ2yf7E1E-5">
          <mxGeometry relative="1" as="geometry" />
        </mxCell>
        <mxCell id="Vfg6PGqvxrUxQ2yf7E1E-15" style="rounded=0;orthogonalLoop=1;jettySize=auto;html=1;endArrow=none;endFill=0;" edge="1" parent="1" source="Vfg6PGqvxrUxQ2yf7E1E-3" target="Vfg6PGqvxrUxQ2yf7E1E-7">
          <mxGeometry relative="1" as="geometry" />
        </mxCell>
        <mxCell id="Vfg6PGqvxrUxQ2yf7E1E-3" value="Enseignant" style="shape=umlActor;verticalLabelPosition=bottom;verticalAlign=top;html=1;outlineConnect=0;" vertex="1" parent="1">
          <mxGeometry x="350" y="380" width="30" height="60" as="geometry" />
        </mxCell>
        <mxCell id="Vfg6PGqvxrUxQ2yf7E1E-5" value="Effectuer une réservation" style="ellipse;whiteSpace=wrap;html=1;" vertex="1" parent="1">
          <mxGeometry x="510" y="250" width="140" height="70" as="geometry" />
        </mxCell>
        <mxCell id="Vfg6PGqvxrUxQ2yf7E1E-6" value="vérifier la disponibilité" style="ellipse;whiteSpace=wrap;html=1;" vertex="1" parent="1">
          <mxGeometry x="760" y="250" width="140" height="70" as="geometry" />
        </mxCell>
        <mxCell id="Vfg6PGqvxrUxQ2yf7E1E-7" value="Visualiser les horaires des enseignants" style="ellipse;whiteSpace=wrap;html=1;" vertex="1" parent="1">
          <mxGeometry x="520" y="430" width="140" height="70" as="geometry" />
        </mxCell>
        <mxCell id="Vfg6PGqvxrUxQ2yf7E1E-8" value="Modifier le récapitulatif des horaires" style="ellipse;whiteSpace=wrap;html=1;" vertex="1" parent="1">
          <mxGeometry x="520" y="530" width="140" height="70" as="geometry" />
        </mxCell>
        <mxCell id="Vfg6PGqvxrUxQ2yf7E1E-9" value="Consulter le planning" style="ellipse;whiteSpace=wrap;html=1;" vertex="1" parent="1">
          <mxGeometry x="510" y="160" width="140" height="70" as="geometry" />
        </mxCell>
        <mxCell id="Vfg6PGqvxrUxQ2yf7E1E-10" value="" style="endArrow=block;endSize=16;endFill=0;html=1;rounded=0;" edge="1" parent="1" source="Vfg6PGqvxrUxQ2yf7E1E-2">
          <mxGeometry x="-0.25" width="160" relative="1" as="geometry">
            <mxPoint x="430" y="440" as="sourcePoint" />
            <mxPoint x="365" y="460" as="targetPoint" />
            <mxPoint as="offset" />
          </mxGeometry>
        </mxCell>
        <mxCell id="Vfg6PGqvxrUxQ2yf7E1E-12" value="" style="endArrow=block;endSize=16;endFill=0;html=1;rounded=0;exitX=0.5;exitY=0;exitDx=0;exitDy=0;exitPerimeter=0;" edge="1" parent="1" source="Vfg6PGqvxrUxQ2yf7E1E-3">
          <mxGeometry x="-0.25" width="160" relative="1" as="geometry">
            <mxPoint x="365" y="390" as="sourcePoint" />
            <mxPoint x="365" y="320" as="targetPoint" />
            <mxPoint as="offset" />
          </mxGeometry>
        </mxCell>
        <mxCell id="Vfg6PGqvxrUxQ2yf7E1E-17" value="&amp;lt;&amp;lt;include&amp;gt;&amp;gt;" style="html=1;verticalAlign=bottom;labelBackgroundColor=none;endArrow=open;endFill=0;dashed=1;rounded=0;" edge="1" parent="1" source="Vfg6PGqvxrUxQ2yf7E1E-5" target="Vfg6PGqvxrUxQ2yf7E1E-6">
          <mxGeometry width="160" relative="1" as="geometry">
            <mxPoint x="460" y="410" as="sourcePoint" />
            <mxPoint x="620" y="410" as="targetPoint" />
          </mxGeometry>
        </mxCell>
        <mxCell id="Vfg6PGqvxrUxQ2yf7E1E-18" value="Effectuer une réservation&lt;div&gt;de salle&lt;/div&gt;" style="ellipse;whiteSpace=wrap;html=1;" vertex="1" parent="1">
          <mxGeometry x="660" y="360" width="140" height="70" as="geometry" />
        </mxCell>
        <mxCell id="Vfg6PGqvxrUxQ2yf7E1E-19" value="Effectuer une réservation&lt;div&gt;de matériel&lt;/div&gt;" style="ellipse;whiteSpace=wrap;html=1;" vertex="1" parent="1">
          <mxGeometry x="827" y="360" width="140" height="70" as="geometry" />
        </mxCell>
        <mxCell id="Vfg6PGqvxrUxQ2yf7E1E-20" value="" style="endArrow=block;endSize=16;endFill=0;html=1;rounded=0;" edge="1" parent="1" source="Vfg6PGqvxrUxQ2yf7E1E-18" target="Vfg6PGqvxrUxQ2yf7E1E-5">
          <mxGeometry x="-0.25" width="160" relative="1" as="geometry">
            <mxPoint x="680" y="390" as="sourcePoint" />
            <mxPoint x="680" y="330" as="targetPoint" />
            <mxPoint as="offset" />
          </mxGeometry>
        </mxCell>
        <mxCell id="Vfg6PGqvxrUxQ2yf7E1E-21" value="" style="endArrow=block;endSize=16;endFill=0;html=1;rounded=0;" edge="1" parent="1" source="Vfg6PGqvxrUxQ2yf7E1E-19" target="Vfg6PGqvxrUxQ2yf7E1E-5">
          <mxGeometry x="-0.25" width="160" relative="1" as="geometry">
            <mxPoint x="700" y="376" as="sourcePoint" />
            <mxPoint x="629" y="324" as="targetPoint" />
            <mxPoint as="offset" />
          </mxGeometry>
        </mxCell>
        <mxCell id="Vfg6PGqvxrUxQ2yf7E1E-22" value="Réserver un rétroprojecteur" style="ellipse;whiteSpace=wrap;html=1;" vertex="1" parent="1">
          <mxGeometry x="720" y="480" width="140" height="70" as="geometry" />
        </mxCell>
        <mxCell id="Vfg6PGqvxrUxQ2yf7E1E-23" value="Réserver un ordinateur portable" style="ellipse;whiteSpace=wrap;html=1;" vertex="1" parent="1">
          <mxGeometry x="870" y="480" width="140" height="70" as="geometry" />
        </mxCell>
        <mxCell id="Vfg6PGqvxrUxQ2yf7E1E-24" value="" style="endArrow=block;endSize=16;endFill=0;html=1;rounded=0;" edge="1" parent="1" source="Vfg6PGqvxrUxQ2yf7E1E-22" target="Vfg6PGqvxrUxQ2yf7E1E-19">
          <mxGeometry x="-0.25" width="160" relative="1" as="geometry">
            <mxPoint x="700" y="376" as="sourcePoint" />
            <mxPoint x="629" y="324" as="targetPoint" />
            <mxPoint as="offset" />
          </mxGeometry>
        </mxCell>
        <mxCell id="Vfg6PGqvxrUxQ2yf7E1E-25" value="" style="endArrow=block;endSize=16;endFill=0;html=1;rounded=0;" edge="1" parent="1" source="Vfg6PGqvxrUxQ2yf7E1E-23" target="Vfg6PGqvxrUxQ2yf7E1E-19">
          <mxGeometry x="-0.25" width="160" relative="1" as="geometry">
            <mxPoint x="700" y="376" as="sourcePoint" />
            <mxPoint x="629" y="324" as="targetPoint" />
            <mxPoint as="offset" />
          </mxGeometry>
        </mxCell>
      </root>
    </mxGraphModel>
  </diagram>
</mxfile>
